<svg xmlns="http://www.w3.org/2000/svg" viewBox="0 0 333333 258929" shape-rendering="geometricPrecision" text-rendering="geometricPrecision" image-rendering="optimizeQuality" fill-rule="evenodd" clip-rule="evenodd"><path d="M137903 110666c29046 24886 38059 63185 26588 98993h88915c8466-25072 33967-39450 62586-27281l10290-60493c1735-10199-8465-18809-18809-18809h-57397V57541c0-3566-2837-6505-6367-6668V27340h-8783v23544c-3442 257-6178 3153-6178 6657v45535h-44825c8580-40563-1446-54405-7216-95664-2287-5918-6763-7246-11792-7412H60475c-5241 46-8875 2648-10781 8086l-7074 68225-14100 16664c-6169 7128-4369 5476 1298 13994 963-712 1949-1397 2954-2056 29681-19444 77204-15931 105132 5753zm104567-95985c404-415 1069-424 1484-20s424 1069 20 1484c-798 818-491 1984-204 3076 482 1833 929 3538-1289 4807-504 288-1146 113-1435-391-288-504-113-1146 391-1435 822-470 572-1423 303-2447-433-1647-895-3407 730-5074zm-6357 0c404-415 1069-424 1484-20s424 1069 20 1484c-797 818-491 1984-204 3075 482 1834 929 3538-1289 4807-504 288-1146 113-1435-391-288-504-113-1146 391-1435 822-470 572-1423 303-2447-433-1647-894-3407 730-5074zm-115528 7883v50309c11647 2629 23130 6242 34445 10861 5913 2414 12878-5363 11626-11626l-7580-37917c-1252-6261-5232-11626-11626-11626h-26865zm-11576 48028V22564H80252c-6394 0-10178 5398-11626 11626l-5053 21743c-1448 6228 5238 11542 11626 11626 11413 150 22685 1155 33811 3033zm188991 116580c19514 0 35333 15819 35333 35333s-15819 35333-35333 35333-35333-15819-35333-35333 15819-35333 35333-35333zM75492 107943c41694 0 75493 33799 75493 75493 0 41693-33799 75493-75493 75493C33799 258929-1 225129-1 183436c0-41694 33799-75493 75493-75493zm0 34912c22412 0 40581 18169 40581 40581s-18169 40581-40581 40581-40580-18169-40580-40581 18169-40581 40580-40581zm222508 61735c9894 0 17914 8020 17914 17914 0 9893-8020 17914-17914 17914-9893 0-17914-8020-17914-17914s8020-17914 17914-17914zm-52522-79430h44623l-1004 5148h-44498l879-5148zm-15665 27782h60289l-1004 5148h-60163l879-5148zm5559-13891h54730l-1004 5147h-54604l879-5147z"/></svg>