<svg xmlns="http://www.w3.org/2000/svg"  viewBox="0 0 3333.34 3140.11" shape-rendering="geometricPrecision" text-rendering="geometricPrecision" image-rendering="optimizeQuality" fill-rule="evenodd" clip-rule="evenodd"><path d="M1714.81 765.18c178.43 13.83 261.83-24.54 303.34-301.94-163.73 43.59-335.31 51.32-303.34 301.94zM847.94 2459.35c193.54-55.77 266.34-129.09 200.74-437.88-155.41 110.5-333.23 186.29-200.74 437.88zM725.67 2132.4c193.55-55.77 266.34-129.09 200.73-437.88-155.41 110.5-333.23 186.29-200.73 437.88zm-120.31-320.33c172.09-49.58 236.81-114.78 178.48-389.32-138.18 98.25-296.28 165.63-178.48 389.32zM498.4 1527.29c152.76-44.02 210.21-101.89 158.43-345.59-122.65 87.21-263 147.02-158.43 345.59zm-94.81-252.87c142.27-41 195.78-94.9 147.56-321.87-114.24 81.22-244.95 136.93-147.56 321.87zm-123.78-187.48C115.99 1046.86 51.05 929.78 133.95 699.4c88.56 40.76 294.97 177.91 145.86 387.54zm484.94 1403.52c-182.65 84.91-285.69 77.35-438.8-198.71 189.78-18.58 373.69-78.08 438.8 198.71zm-122.27-326.95c-182.65 84.92-285.69 77.35-438.8-198.71 189.78-18.59 373.7-78.08 438.8 198.71zm-119.4-320.67c-162.4 75.5-254.02 68.77-390.15-176.68 168.74-16.53 332.26-69.43 390.15 176.68zm-106.15-285.09c-144.16 67.02-225.48 61.05-346.32-156.83 149.79-14.68 294.94-61.63 346.32 156.83zm-94.37-253.04C188.3 1367.13 112.55 1361.57.01 1158.64c139.5-13.66 274.69-57.39 322.55 146.07zm2162.85 1162.94c-193.54-55.77-266.34-129.09-200.74-437.88 155.41 110.5 333.23 186.28 200.74 437.88zm122.27-326.95c-193.55-55.77-266.34-129.1-200.74-437.88 155.41 110.5 333.23 186.29 200.74 437.88zm120.31-320.33c-172.09-49.59-236.81-114.78-178.48-389.32 138.18 98.24 296.28 165.63 178.48 389.32zm106.96-284.78c-152.76-44.02-210.21-101.89-158.43-345.59 122.65 87.21 263 147.02 158.43 345.59zm94.81-252.87c-142.27-41-195.78-94.9-147.56-321.87 114.24 81.22 244.95 136.93 147.56 321.87zm123.78-187.48c163.82-40.08 228.76-157.17 145.86-387.54-88.56 40.76-294.97 177.91-145.86 387.54zM2568.6 2498.76c182.65 84.91 285.69 77.35 438.8-198.71-189.78-18.58-373.69-78.08-438.8 198.71zm122.27-326.96c182.65 84.92 285.69 77.35 438.8-198.7-189.78-18.59-373.7-78.08-438.8 198.7zm119.4-320.66c162.4 75.5 254.02 68.77 390.15-176.68-168.74-16.53-332.26-69.42-390.15 176.68zm106.15-285.09c144.16 67.02 225.48 61.05 346.32-156.83-149.79-14.67-294.94-61.63-346.32 156.83zm94.37-253.04c134.26 62.42 210.01 56.86 322.55-146.07-139.5-13.66-274.69-57.39-322.55 146.07zM1611.82 2427.34c0-28.68 23.25-51.93 51.93-51.93s51.93 23.25 51.93 51.93v634.19c0 28.68-23.25 51.93-51.93 51.93s-51.93-23.25-51.93-51.93v-634.19zm-789.78 211.87c-10.75-26.55 2.05-56.79 28.6-67.54 26.55-10.75 56.79 2.05 67.54 28.6 20.87 51.45 44.46 101.35 68.13 151.44 47.31 100.11 94.99 200.98 122.57 313.41 6.72 27.78-10.35 55.75-38.13 62.47-27.78 6.72-55.75-10.35-62.47-38.13-24.87-101.43-70.46-197.85-115.68-293.54-24.72-52.3-49.35-104.41-70.57-156.71zm1584.82-38.94c10.75-26.55 41-39.35 67.54-28.6 26.55 10.75 39.35 41 28.6 67.54-21.21 52.29-45.84 104.4-70.56 156.7-46.67 98.74-93.72 198.27-118.1 303.93-6.39 27.89-34.18 45.33-62.07 38.94-27.89-6.39-45.33-34.18-38.94-62.07 26.93-116.69 76.36-221.26 125.4-325.02 23.67-50.09 47.26-99.99 68.13-151.43zm-798.02-305.39c-242.74 18.81-356.2-33.39-412.67-410.76 222.74 59.31 456.15 69.82 412.67 410.76zm0-421.94c-242.74 18.8-356.2-33.39-412.67-410.76 222.74 59.31 456.15 69.82 412.67 410.76zm.59-413.61c-215.83 16.72-316.71-29.69-366.91-365.22 198.04 52.73 405.57 62.08 366.91 365.22zm.53-367.71c-191.59 14.84-281.14-26.35-325.7-324.2 175.8 46.81 360.02 55.1 325.7 324.2zm.28-326.45C1431.8 779 1348.4 740.63 1306.9 463.23c163.73 43.59 335.3 51.32 303.34 301.94zM1671 500.51c168.5-114.74 192.46-274.8 1.06-500.52-83.01 83.65-258.63 326.31-1.06 500.52zm45.21 1794.36c242.74 18.81 356.2-33.39 412.67-410.76-222.74 59.31-456.15 69.82-412.67 410.76zm0-421.94c242.74 18.8 356.2-33.39 412.67-410.76-222.74 59.31-456.15 69.82-412.67 410.76zm-.59-413.61c215.83 16.72 316.71-29.69 366.91-365.22-198.04 52.73-405.57 62.08-366.91 365.22zm-.53-367.71c191.59 14.84 281.14-26.35 325.7-324.2-175.8 46.81-360.01 55.1-325.7 324.2z"/></svg>