<svg xmlns="http://www.w3.org/2000/svg" shape-rendering="geometricPrecision" text-rendering="geometricPrecision" image-rendering="optimizeQuality" fill-rule="evenodd" clip-rule="evenodd" width="333333" height="333333" style=""><rect id="backgroundrect" width="100%" height="100%" x="0" y="0" fill="none" stroke="none"/><g class="currentLayer" style=""><title>Layer 1</title><path d="M209919.0000152588,33533.000061035156 c-847,0 -1573,-121 -2300,-363 c-3752,0 -6898,-3026 -6898,-6899 V12716.000061035156 h-66809 v13555 c0,3510 -2784,6536 -6172,6778 c-726,242 -1574,363 -2421,363 h-25174 v28079 h131802 V33412.000061035156 h-22270 l242,121 zM93624.00001525879,202585.00006103516 c7498,0 13576,6078 13576,13576 s-6078,13576 -13576,13576 c-7497,0 -13576,-6078 -13576,-13576 s6078,-13576 13576,-13576 zm-15683,-33468 c-1877,-2803 -1127,-6598 1676,-8475 s6598,-1127 8475,1676 l3327,4946 l13211,-16072 c2142,-2605 5990,-2980 8595,-838 s2980,5990 838,8595 l-18274,22232 c-398,522 -886,988 -1461,1373 c-2803,1877 -6598,1127 -8475,-1676 l-7911,-11761 zm0,-46984 c-1877,-2803 -1127,-6598 1676,-8475 s6598,-1127 8475,1676 l3327,4946 l13211,-16074 c2142,-2605 5990,-2980 8595,-838 s2980,5990 838,8595 l-18274,22234 c-397,522 -886,988 -1462,1373 c-2803,1877 -6598,1127 -8475,-1676 l-7911,-11761 zm141419,208424 c-1210,1089 -2904,1815 -4599,1815 c-363,0 -726,0 -1089,-121 H46892.00001525879 c-4115,0 -7988,-1694 -10772,-4478 s-4478,-6535 -4478,-10772 V52896.000061035156 c0,-4236 1694,-7988 4478,-10771 c2784,-2784 6535,-4478 10772,-4478 h39698 v-7504 c0,-2784 1089,-5326 3026,-7262 c1815,-1816 4357,-3026 7261,-3026 h23480 v-9440 c0,-3147 1331,-5931 3389,-7988 c2057,-2057 4841,-3389 7988,-3389 h71529 c3147,0 5931,1331 7988,3389 c2057,2057 3389,4841 3389,7988 v9440 h21180 c2784,0 5325,1210 7262,3026 c1815,1815 3026,4478 3026,7262 v7504 h39698 c4236,0 7988,1694 10772,4478 c2783,2783 4478,6535 4478,10771 v190519 c547,2736 -16,4857 -2057,6898 l-78791,79759 c-242,242 -363,363 -605,484 h-242 zm-11498,-11982 c0,-91204 -11507,-80365 79275,-80365 V52896.000061035156 c0,-363 -121,-847 -484,-1089 c-242,-242 -605,-484 -1089,-484 h-39698 v13798 c0,2784 -1089,5325 -3026,7262 c-1816,1815 -4357,3026 -7262,3026 H96756.00001525879 c-2784,0 -5446,-1210 -7262,-3026 c-242,-242 -363,-484 -605,-726 c-1452,-1815 -2420,-4115 -2420,-6535 V51324.000061035156 H46771.00001525879 c-363,0 -847,121 -1089,484 c-242,242 -484,726 -484,1089 v264105 c0,484 121,847 484,1089 c242,242 605,484 1089,484 h161091 zm-64378,-97636 c-3752,0 -6899,-3026 -6899,-6899 c0,-3752 3026,-6899 6899,-6899 h65468 c3752,0 6899,3026 6899,6898 c0,3752 -3026,6899 -6899,6899 h-65468 zm0,-98414 c-3752,0 -6899,-3026 -6899,-6899 c0,-3752 3026,-6898 6899,-6898 h100809 c3752,0 6898,3026 6898,6898 c0,3752 -3026,6899 -6898,6899 H143484.0000152588 zm0,49207 c-3752,0 -6899,-3026 -6899,-6899 c0,-3752 3026,-6898 6899,-6898 h100809 c3752,0 6898,3026 6898,6898 c0,3752 -3026,6899 -6898,6899 H143484.0000152588 z" fill-rule="nonzero" id="svg_1" class="" fill="#ff6e00" fill-opacity="1"/></g></svg>